<svg width="10" height="12" viewBox="0 0 10 12" fill="none" xmlns="http://www.w3.org/2000/svg">
<path fill-rule="evenodd" clip-rule="evenodd" d="M0 0.6C0 0.44087 0.0585316 0.288258 0.162718 0.175736C0.266905 0.0632141 0.408213 0 0.555556 0H7.22222C7.36957 0 7.51087 0.0632141 7.61506 0.175736C7.71925 0.288258 7.77778 0.44087 7.77778 0.6C7.77778 0.75913 7.71925 0.911742 7.61506 1.02426C7.51087 1.13679 7.36957 1.2 7.22222 1.2H1.11111V8.4C1.11111 8.55913 1.05258 8.71174 0.948393 8.82426C0.844206 8.93679 0.702898 9 0.555556 9C0.408213 9 0.266905 8.93679 0.162718 8.82426C0.0585316 8.71174 0 8.55913 0 8.4V0.6ZM2.22222 3C2.22222 2.84087 2.28075 2.68826 2.38494 2.57574C2.48913 2.46321 2.63044 2.4 2.77778 2.4H9.44444C9.59179 2.4 9.7331 2.46321 9.83728 2.57574C9.94147 2.68826 10 2.84087 10 3V10.2C10 10.6774 9.82441 11.1352 9.51185 11.4728C9.19928 11.8104 8.77536 12 8.33333 12H3.88889C3.44686 12 3.02294 11.8104 2.71038 11.4728C2.39782 11.1352 2.22222 10.6774 2.22222 10.2V3Z" fill="white"/>
</svg>
