<svg width="138" height="138" viewBox="0 0 138 138" fill="none" xmlns="http://www.w3.org/2000/svg">
<path d="M44.7143 1H25C11.7452 1 1 11.7452 1 25V44.7143" stroke="#0B1319" stroke-width="2"/>
<path d="M93.2857 137L113 137C126.255 137 137 126.255 137 113L137 93.2857" stroke="#0B1319" stroke-width="2"/>
<path d="M137 44.7143L137 25C137 11.7452 126.255 1 113 0.999999L93.2857 0.999998" stroke="#0B1319" stroke-width="2"/>
<path d="M1.00001 93.2857L1 113C1 126.255 11.7452 137 25 137L44.7143 137" stroke="#0B1319" stroke-width="2"/>
<path fill-rule="evenodd" clip-rule="evenodd" d="M72.2171 19.0389L42.7312 52.1249H66.6368L37.5828 84.9228L25.954 52.1249V19.0389H69.0849H72.2171ZM37.5828 84.9228L102.351 41.9723L78.4455 42.2963L99.1829 19.0389H112.216V52.1249L100.623 84.9228L69.0849 101.484L37.5828 84.9228Z" fill="#4364FA"/>
<path fill-rule="evenodd" clip-rule="evenodd" d="M41.976 119.181V111.427H43.3277V119.105C43.3277 119.455 43.5087 119.643 43.8416 119.643H44.1251V120.807H43.5709C42.554 120.807 41.9742 120.207 41.9742 119.181H41.976ZM20.6694 118.119H22.0211C22.0339 119.02 22.793 119.732 24.0422 119.732C25.2914 119.732 25.831 119.258 25.831 118.469C25.831 117.405 24.8423 117.175 23.755 116.921C22.4267 116.612 20.9511 116.268 20.9511 114.328C20.9511 113.102 22.0595 111.889 23.9654 111.889C25.8713 111.889 27.029 112.688 27.0546 114.515H25.6518C25.6518 113.651 25.0463 113.102 23.9526 113.102C22.8588 113.102 22.3302 113.678 22.3302 114.304C22.3302 115.224 23.267 115.442 24.3239 115.689C25.6919 116.007 27.2613 116.372 27.2613 118.369C27.2613 119.732 26.0633 120.971 23.991 120.971C21.9187 120.971 20.6694 119.807 20.6694 118.119ZM29.5386 118.73V115.341H28.3277V114.279H29.2167C29.4489 114.279 29.6154 114.115 29.6154 113.854V112.415H30.8902V114.266H32.8473V115.341H30.8902V118.693C30.8902 119.318 31.1609 119.693 31.8688 119.693H32.7833V120.806H31.6639C30.3379 120.806 29.5404 120.093 29.5404 118.73H29.5386ZM37.3412 114.105C35.4225 114.105 33.9812 115.48 33.9812 117.555H33.983C33.983 119.521 35.7097 120.971 37.3686 120.971C39.0276 120.971 40.2256 120.095 40.5731 118.831H39.2599C38.9892 119.469 38.6398 119.869 37.4052 119.869C36.1706 119.869 35.3841 119.094 35.3329 117.955H40.6371V117.468C40.6371 115.606 39.2599 114.105 37.3412 114.105ZM37.3412 115.205C38.3837 115.205 39.2086 115.842 39.2983 116.942H35.3585C35.4609 115.917 36.2986 115.205 37.3412 115.205ZM45.6579 111.427V119.181C45.6579 120.207 46.2377 120.807 47.2547 120.807H47.8089V119.643H47.5254C47.1907 119.643 47.0096 119.455 47.0096 119.105V111.427H45.6579ZM48.8368 117.555C48.8368 115.53 50.1629 114.105 52.0432 114.105C53.6684 114.105 53.9654 114.683 54.1578 115.058L54.1578 115.059L54.1578 115.059L54.1578 115.059L54.1578 115.059L54.1579 115.059L54.158 115.059C54.1881 115.118 54.2156 115.171 54.2453 115.217H54.3349V114.266H55.6866V120.807H54.3606V119.881H54.2837C54.1027 120.132 53.446 120.969 52.109 120.969C50.1775 120.969 48.8387 119.581 48.8387 117.554L48.8368 117.555ZM54.3734 117.543C54.3734 116.13 53.4716 115.304 52.2882 115.304C51.1048 115.304 50.2159 116.23 50.2159 117.543C50.2159 118.856 51.0664 119.782 52.301 119.782C53.5357 119.782 54.3734 118.782 54.3734 117.543ZM58.9314 114.266H57.631V120.809H58.9826V117.582C58.9826 116.37 59.6393 115.531 60.7843 115.531H61.4153V114.256H60.8227C59.8716 114.256 59.2277 114.879 59.0211 115.405H58.9314V114.266ZM65.9201 118.119H67.2718C67.2846 119.02 68.0436 119.732 69.2929 119.732C70.5421 119.732 71.0817 119.258 71.0817 118.469C71.0817 117.405 70.0934 117.175 69.0065 116.921C67.6786 116.612 66.2036 116.268 66.2036 114.328C66.2036 113.104 67.3102 111.89 69.2161 111.89C71.1219 111.89 72.2797 112.69 72.3053 114.517H70.9025C70.9025 113.653 70.297 113.104 69.2033 113.104C68.1095 113.104 67.5809 113.68 67.5809 114.305C67.5809 115.226 68.5177 115.444 69.5746 115.69C70.9426 116.009 72.512 116.374 72.512 118.371C72.512 119.732 71.314 120.973 69.2417 120.973C67.1694 120.973 65.9201 119.809 65.9201 118.12V118.119ZM77.0188 114.105C75.1001 114.105 73.6589 115.48 73.6589 117.555C73.6589 119.521 75.3836 120.971 77.0444 120.971C78.7052 120.971 79.9032 120.095 80.2507 118.831H78.9375C78.6668 119.469 78.3193 119.869 77.0828 119.869C75.8464 119.869 75.0617 119.094 75.0105 117.955H80.3148V117.468C80.3148 115.606 78.9375 114.105 77.0188 114.105ZM77.0188 115.205C78.0614 115.205 78.8863 115.842 78.9759 116.942H75.0361C75.1386 115.917 75.9763 115.205 77.0188 115.205ZM81.4725 117.543C81.4725 115.604 82.9138 114.103 84.9605 114.103C87.0072 114.103 87.909 115.053 88.2181 116.553H86.828C86.5957 115.803 85.8623 115.302 84.9733 115.302C83.6985 115.302 82.8626 116.278 82.8626 117.541C82.8626 118.805 83.7387 119.78 84.9989 119.78C86.2592 119.78 86.6085 119.281 86.839 118.542H88.2162C87.9199 120.043 86.5555 120.967 84.9715 120.967C83.3876 120.967 81.4707 119.466 81.4707 117.539L81.4725 117.543ZM89.7636 114.266V118.467C89.7636 119.881 90.7019 120.969 92.2346 120.969C93.2388 120.969 93.9338 120.47 94.2045 119.931H94.2941V120.807H95.6074V114.266H94.2557V118.106C94.2557 119.057 93.4692 119.757 92.6205 119.757C91.7719 119.757 91.1152 119.156 91.1152 118.231V114.266H89.7636ZM97.5901 114.266H98.8905V115.405H98.9802C99.1869 114.879 99.8307 114.256 100.782 114.256H101.374V115.531H100.743C99.5984 115.531 98.9418 116.37 98.9418 117.582V120.809H97.5901V114.266ZM103.617 111.576C103.101 111.576 102.728 111.928 102.728 112.402C102.728 112.903 103.088 113.241 103.617 113.241C104.145 113.241 104.519 112.878 104.519 112.402C104.519 111.926 104.133 111.576 103.617 111.576ZM104.286 114.266H102.935V120.807H104.286V114.266ZM106.885 118.73V115.341H105.674V114.279H106.563C106.796 114.279 106.962 114.115 106.962 113.854V112.415H108.237V114.266H110.194V115.341H108.237V118.693C108.237 119.318 108.508 119.693 109.216 119.693H110.13V120.806H109.011C107.685 120.806 106.887 120.093 106.887 118.73H106.885ZM112.422 122.508H111.829V123.684H112.588C113.799 123.684 114.417 123.108 114.803 122.108L117.893 114.266H116.413L114.558 119.32H114.469L112.601 114.266H111.134L113.85 121.083L113.605 121.708C113.4 122.232 113.04 122.508 112.422 122.508Z" fill="#0B1319"/>
</svg>
