<svg width="194" height="24" viewBox="0 0 194 24" fill="none" xmlns="http://www.w3.org/2000/svg">
<g clip-path="url(#clip0_51_5508)">
<path fill-rule="evenodd" clip-rule="evenodd" d="M0.0130615 0.541372H11.9529L12.8172 0.541365L4.6549 9.71001H11.2755L3.22795 18.8002L3.22746 18.7999L0.0130615 9.71154V0.541372ZM3.22807 18.8003L11.9529 23.3846L20.6783 18.7999L23.8927 9.71154V0.541372L20.2795 0.541365L14.5406 6.98676L21.1612 6.89602L3.22807 18.8003Z" fill="white"/>
</g>
<path d="M38.516 10.084C38.516 10.78 38.276 11.36 37.796 11.824C37.324 12.28 36.6 12.508 35.624 12.508H34.016V16H32.924V7.636H35.624C36.568 7.636 37.284 7.864 37.772 8.32C38.268 8.776 38.516 9.364 38.516 10.084ZM35.624 11.608C36.232 11.608 36.68 11.476 36.968 11.212C37.256 10.948 37.4 10.572 37.4 10.084C37.4 9.052 36.808 8.536 35.624 8.536H34.016V11.608H35.624ZM42.7412 16.108C42.1252 16.108 41.5652 15.968 41.0612 15.688C40.5652 15.408 40.1732 15.012 39.8852 14.5C39.6052 13.98 39.4652 13.38 39.4652 12.7C39.4652 12.028 39.6092 11.436 39.8972 10.924C40.1932 10.404 40.5932 10.008 41.0972 9.736C41.6012 9.456 42.1652 9.316 42.7892 9.316C43.4132 9.316 43.9772 9.456 44.4812 9.736C44.9852 10.008 45.3812 10.4 45.6692 10.912C45.9652 11.424 46.1132 12.02 46.1132 12.7C46.1132 13.38 45.9612 13.98 45.6572 14.5C45.3612 15.012 44.9572 15.408 44.4452 15.688C43.9332 15.968 43.3652 16.108 42.7412 16.108ZM42.7412 15.148C43.1332 15.148 43.5012 15.056 43.8452 14.872C44.1892 14.688 44.4652 14.412 44.6732 14.044C44.8892 13.676 44.9972 13.228 44.9972 12.7C44.9972 12.172 44.8932 11.724 44.6852 11.356C44.4772 10.988 44.2052 10.716 43.8692 10.54C43.5332 10.356 43.1692 10.264 42.7772 10.264C42.3772 10.264 42.0092 10.356 41.6732 10.54C41.3452 10.716 41.0812 10.988 40.8812 11.356C40.6812 11.724 40.5812 12.172 40.5812 12.7C40.5812 13.236 40.6772 13.688 40.8692 14.056C41.0692 14.424 41.3332 14.7 41.6612 14.884C41.9892 15.06 42.3492 15.148 42.7412 15.148ZM56.309 9.424L54.257 16H53.129L51.545 10.78L49.961 16H48.833L46.769 9.424H47.885L49.397 14.944L51.029 9.424H52.145L53.741 14.956L55.229 9.424H56.309ZM63.3928 12.46C63.3928 12.668 63.3808 12.888 63.3568 13.12H58.1008C58.1408 13.768 58.3608 14.276 58.7608 14.644C59.1688 15.004 59.6608 15.184 60.2368 15.184C60.7088 15.184 61.1008 15.076 61.4128 14.86C61.7328 14.636 61.9568 14.34 62.0848 13.972H63.2608C63.0848 14.604 62.7328 15.12 62.2048 15.52C61.6768 15.912 61.0208 16.108 60.2368 16.108C59.6128 16.108 59.0528 15.968 58.5568 15.688C58.0688 15.408 57.6848 15.012 57.4048 14.5C57.1248 13.98 56.9848 13.38 56.9848 12.7C56.9848 12.02 57.1208 11.424 57.3928 10.912C57.6648 10.4 58.0448 10.008 58.5328 9.736C59.0288 9.456 59.5968 9.316 60.2368 9.316C60.8608 9.316 61.4128 9.452 61.8928 9.724C62.3728 9.996 62.7408 10.372 62.9968 10.852C63.2608 11.324 63.3928 11.86 63.3928 12.46ZM62.2648 12.232C62.2648 11.816 62.1728 11.46 61.9888 11.164C61.8048 10.86 61.5528 10.632 61.2328 10.48C60.9208 10.32 60.5728 10.24 60.1888 10.24C59.6368 10.24 59.1648 10.416 58.7728 10.768C58.3888 11.12 58.1688 11.608 58.1128 12.232H62.2648ZM65.9262 10.492C66.1182 10.116 66.3902 9.824 66.7422 9.616C67.1022 9.408 67.5382 9.304 68.0502 9.304V10.432H67.7622C66.5382 10.432 65.9262 11.096 65.9262 12.424V16H64.8342V9.424H65.9262V10.492ZM75.3107 12.46C75.3107 12.668 75.2987 12.888 75.2747 13.12H70.0187C70.0587 13.768 70.2787 14.276 70.6787 14.644C71.0867 15.004 71.5787 15.184 72.1547 15.184C72.6267 15.184 73.0187 15.076 73.3307 14.86C73.6507 14.636 73.8747 14.34 74.0027 13.972H75.1787C75.0027 14.604 74.6507 15.12 74.1227 15.52C73.5947 15.912 72.9387 16.108 72.1547 16.108C71.5307 16.108 70.9707 15.968 70.4747 15.688C69.9867 15.408 69.6027 15.012 69.3227 14.5C69.0427 13.98 68.9027 13.38 68.9027 12.7C68.9027 12.02 69.0387 11.424 69.3107 10.912C69.5827 10.4 69.9627 10.008 70.4507 9.736C70.9467 9.456 71.5147 9.316 72.1547 9.316C72.7787 9.316 73.3307 9.452 73.8107 9.724C74.2907 9.996 74.6587 10.372 74.9147 10.852C75.1787 11.324 75.3107 11.86 75.3107 12.46ZM74.1827 12.232C74.1827 11.816 74.0907 11.46 73.9067 11.164C73.7227 10.86 73.4707 10.632 73.1507 10.48C72.8387 10.32 72.4907 10.24 72.1067 10.24C71.5547 10.24 71.0827 10.416 70.6907 10.768C70.3067 11.12 70.0867 11.608 70.0307 12.232H74.1827ZM76.3441 12.688C76.3441 12.016 76.4801 11.428 76.7521 10.924C77.0241 10.412 77.3961 10.016 77.8681 9.736C78.3481 9.456 78.8841 9.316 79.4761 9.316C79.9881 9.316 80.4641 9.436 80.9041 9.676C81.3441 9.908 81.6801 10.216 81.9121 10.6V7.12H83.0161V16H81.9121V14.764C81.6961 15.156 81.3761 15.48 80.9521 15.736C80.5281 15.984 80.0321 16.108 79.4641 16.108C78.8801 16.108 78.3481 15.964 77.8681 15.676C77.3961 15.388 77.0241 14.984 76.7521 14.464C76.4801 13.944 76.3441 13.352 76.3441 12.688ZM81.9121 12.7C81.9121 12.204 81.8121 11.772 81.6121 11.404C81.4121 11.036 81.1401 10.756 80.7961 10.564C80.4601 10.364 80.0881 10.264 79.6801 10.264C79.2721 10.264 78.9001 10.36 78.5641 10.552C78.2281 10.744 77.9601 11.024 77.7601 11.392C77.5601 11.76 77.4601 12.192 77.4601 12.688C77.4601 13.192 77.5601 13.632 77.7601 14.008C77.9601 14.376 78.2281 14.66 78.5641 14.86C78.9001 15.052 79.2721 15.148 79.6801 15.148C80.0881 15.148 80.4601 15.052 80.7961 14.86C81.1401 14.66 81.4121 14.376 81.6121 14.008C81.8121 13.632 81.9121 13.196 81.9121 12.7ZM89.1527 10.648C89.3767 10.256 89.7047 9.936 90.1367 9.688C90.5687 9.44 91.0607 9.316 91.6127 9.316C92.2047 9.316 92.7367 9.456 93.2087 9.736C93.6807 10.016 94.0527 10.412 94.3247 10.924C94.5967 11.428 94.7327 12.016 94.7327 12.688C94.7327 13.352 94.5967 13.944 94.3247 14.464C94.0527 14.984 93.6767 15.388 93.1967 15.676C92.7247 15.964 92.1967 16.108 91.6127 16.108C91.0447 16.108 90.5447 15.984 90.1127 15.736C89.6887 15.488 89.3687 15.172 89.1527 14.788V16H88.0607V7.12H89.1527V10.648ZM93.6167 12.688C93.6167 12.192 93.5167 11.76 93.3167 11.392C93.1167 11.024 92.8447 10.744 92.5007 10.552C92.1647 10.36 91.7927 10.264 91.3847 10.264C90.9847 10.264 90.6127 10.364 90.2687 10.564C89.9327 10.756 89.6607 11.04 89.4527 11.416C89.2527 11.784 89.1527 12.212 89.1527 12.7C89.1527 13.196 89.2527 13.632 89.4527 14.008C89.6607 14.376 89.9327 14.66 90.2687 14.86C90.6127 15.052 90.9847 15.148 91.3847 15.148C91.7927 15.148 92.1647 15.052 92.5007 14.86C92.8447 14.66 93.1167 14.376 93.3167 14.008C93.5167 13.632 93.6167 13.192 93.6167 12.688ZM101.834 9.424L97.8741 19.096H96.7461L98.0421 15.928L95.3901 9.424H96.6021L98.6661 14.752L100.706 9.424H101.834Z" fill="#D6D6E0"/>
<path d="M108.783 16.084C108.231 16.084 107.735 15.988 107.295 15.796C106.863 15.596 106.523 15.324 106.275 14.98C106.027 14.628 105.899 14.224 105.891 13.768H107.055C107.095 14.16 107.255 14.492 107.535 14.764C107.823 15.028 108.239 15.16 108.783 15.16C109.303 15.16 109.711 15.032 110.007 14.776C110.311 14.512 110.463 14.176 110.463 13.768C110.463 13.448 110.375 13.188 110.199 12.988C110.023 12.788 109.803 12.636 109.539 12.532C109.275 12.428 108.919 12.316 108.471 12.196C107.919 12.052 107.475 11.908 107.139 11.764C106.811 11.62 106.527 11.396 106.287 11.092C106.055 10.78 105.939 10.364 105.939 9.844C105.939 9.388 106.055 8.984 106.287 8.632C106.519 8.28 106.843 8.008 107.259 7.816C107.683 7.624 108.167 7.528 108.711 7.528C109.495 7.528 110.135 7.724 110.631 8.116C111.135 8.508 111.419 9.028 111.483 9.676H110.283C110.243 9.356 110.075 9.076 109.779 8.836C109.483 8.588 109.091 8.464 108.603 8.464C108.147 8.464 107.775 8.584 107.487 8.824C107.199 9.056 107.055 9.384 107.055 9.808C107.055 10.112 107.139 10.36 107.307 10.552C107.483 10.744 107.695 10.892 107.943 10.996C108.199 11.092 108.555 11.204 109.011 11.332C109.563 11.484 110.007 11.636 110.343 11.788C110.679 11.932 110.967 12.16 111.207 12.472C111.447 12.776 111.567 13.192 111.567 13.72C111.567 14.128 111.459 14.512 111.243 14.872C111.027 15.232 110.707 15.524 110.283 15.748C109.859 15.972 109.359 16.084 108.783 16.084ZM114.506 10.324V14.2C114.506 14.52 114.574 14.748 114.71 14.884C114.846 15.012 115.082 15.076 115.418 15.076H116.222V16H115.238C114.63 16 114.174 15.86 113.87 15.58C113.566 15.3 113.414 14.84 113.414 14.2V10.324H112.562V9.424H113.414V7.768H114.506V9.424H116.222V10.324H114.506ZM123.545 12.46C123.545 12.668 123.533 12.888 123.509 13.12H118.253C118.293 13.768 118.513 14.276 118.913 14.644C119.321 15.004 119.813 15.184 120.389 15.184C120.861 15.184 121.253 15.076 121.565 14.86C121.885 14.636 122.109 14.34 122.237 13.972H123.413C123.237 14.604 122.885 15.12 122.357 15.52C121.829 15.912 121.173 16.108 120.389 16.108C119.765 16.108 119.205 15.968 118.709 15.688C118.221 15.408 117.837 15.012 117.557 14.5C117.277 13.98 117.137 13.38 117.137 12.7C117.137 12.02 117.273 11.424 117.545 10.912C117.817 10.4 118.197 10.008 118.685 9.736C119.181 9.456 119.749 9.316 120.389 9.316C121.013 9.316 121.565 9.452 122.045 9.724C122.525 9.996 122.893 10.372 123.149 10.852C123.413 11.324 123.545 11.86 123.545 12.46ZM122.417 12.232C122.417 11.816 122.325 11.46 122.141 11.164C121.957 10.86 121.705 10.632 121.385 10.48C121.073 10.32 120.725 10.24 120.341 10.24C119.789 10.24 119.317 10.416 118.925 10.768C118.541 11.12 118.321 11.608 118.265 12.232H122.417ZM126.079 7.12V16H124.987V7.12H126.079ZM129.032 7.12V16H127.94V7.12H129.032ZM130.485 12.688C130.485 12.016 130.621 11.428 130.893 10.924C131.165 10.412 131.537 10.016 132.009 9.736C132.489 9.456 133.021 9.316 133.605 9.316C134.181 9.316 134.681 9.44 135.105 9.688C135.529 9.936 135.845 10.248 136.053 10.624V9.424H137.157V16H136.053V14.776C135.837 15.16 135.513 15.48 135.081 15.736C134.657 15.984 134.161 16.108 133.593 16.108C133.009 16.108 132.481 15.964 132.009 15.676C131.537 15.388 131.165 14.984 130.893 14.464C130.621 13.944 130.485 13.352 130.485 12.688ZM136.053 12.7C136.053 12.204 135.953 11.772 135.753 11.404C135.553 11.036 135.281 10.756 134.937 10.564C134.601 10.364 134.229 10.264 133.821 10.264C133.413 10.264 133.041 10.36 132.705 10.552C132.369 10.744 132.101 11.024 131.901 11.392C131.701 11.76 131.601 12.192 131.601 12.688C131.601 13.192 131.701 13.632 131.901 14.008C132.101 14.376 132.369 14.66 132.705 14.86C133.041 15.052 133.413 15.148 133.821 15.148C134.229 15.148 134.601 15.052 134.937 14.86C135.281 14.66 135.553 14.376 135.753 14.008C135.953 13.632 136.053 13.196 136.053 12.7ZM140.094 10.492C140.286 10.116 140.558 9.824 140.91 9.616C141.27 9.408 141.706 9.304 142.218 9.304V10.432H141.93C140.706 10.432 140.094 11.096 140.094 12.424V16H139.002V9.424H140.094V10.492ZM149.33 16.084C148.778 16.084 148.282 15.988 147.842 15.796C147.41 15.596 147.07 15.324 146.822 14.98C146.574 14.628 146.446 14.224 146.438 13.768H147.602C147.642 14.16 147.802 14.492 148.082 14.764C148.37 15.028 148.786 15.16 149.33 15.16C149.85 15.16 150.258 15.032 150.554 14.776C150.858 14.512 151.01 14.176 151.01 13.768C151.01 13.448 150.922 13.188 150.746 12.988C150.57 12.788 150.35 12.636 150.086 12.532C149.822 12.428 149.466 12.316 149.018 12.196C148.466 12.052 148.022 11.908 147.686 11.764C147.358 11.62 147.074 11.396 146.834 11.092C146.602 10.78 146.486 10.364 146.486 9.844C146.486 9.388 146.602 8.984 146.834 8.632C147.066 8.28 147.39 8.008 147.806 7.816C148.23 7.624 148.714 7.528 149.258 7.528C150.042 7.528 150.682 7.724 151.178 8.116C151.682 8.508 151.966 9.028 152.03 9.676H150.83C150.79 9.356 150.622 9.076 150.326 8.836C150.03 8.588 149.638 8.464 149.15 8.464C148.694 8.464 148.322 8.584 148.034 8.824C147.746 9.056 147.602 9.384 147.602 9.808C147.602 10.112 147.686 10.36 147.854 10.552C148.03 10.744 148.242 10.892 148.49 10.996C148.746 11.092 149.102 11.204 149.558 11.332C150.11 11.484 150.554 11.636 150.89 11.788C151.226 11.932 151.514 12.16 151.754 12.472C151.994 12.776 152.114 13.192 152.114 13.72C152.114 14.128 152.006 14.512 151.79 14.872C151.574 15.232 151.254 15.524 150.83 15.748C150.406 15.972 149.906 16.084 149.33 16.084ZM159.721 12.46C159.721 12.668 159.709 12.888 159.685 13.12H154.429C154.469 13.768 154.689 14.276 155.089 14.644C155.497 15.004 155.989 15.184 156.565 15.184C157.037 15.184 157.429 15.076 157.741 14.86C158.061 14.636 158.285 14.34 158.413 13.972H159.589C159.413 14.604 159.061 15.12 158.533 15.52C158.005 15.912 157.349 16.108 156.565 16.108C155.941 16.108 155.381 15.968 154.885 15.688C154.397 15.408 154.013 15.012 153.733 14.5C153.453 13.98 153.313 13.38 153.313 12.7C153.313 12.02 153.449 11.424 153.721 10.912C153.993 10.4 154.373 10.008 154.861 9.736C155.357 9.456 155.925 9.316 156.565 9.316C157.189 9.316 157.741 9.452 158.221 9.724C158.701 9.996 159.069 10.372 159.325 10.852C159.589 11.324 159.721 11.86 159.721 12.46ZM158.593 12.232C158.593 11.816 158.501 11.46 158.317 11.164C158.133 10.86 157.881 10.632 157.561 10.48C157.249 10.32 156.901 10.24 156.517 10.24C155.965 10.24 155.493 10.416 155.101 10.768C154.717 11.12 154.497 11.608 154.441 12.232H158.593ZM160.754 12.7C160.754 12.02 160.89 11.428 161.162 10.924C161.434 10.412 161.81 10.016 162.29 9.736C162.778 9.456 163.334 9.316 163.958 9.316C164.766 9.316 165.43 9.512 165.95 9.904C166.478 10.296 166.826 10.84 166.994 11.536H165.818C165.706 11.136 165.486 10.82 165.158 10.588C164.838 10.356 164.438 10.24 163.958 10.24C163.334 10.24 162.83 10.456 162.446 10.888C162.062 11.312 161.87 11.916 161.87 12.7C161.87 13.492 162.062 14.104 162.446 14.536C162.83 14.968 163.334 15.184 163.958 15.184C164.438 15.184 164.838 15.072 165.158 14.848C165.478 14.624 165.698 14.304 165.818 13.888H166.994C166.818 14.56 166.466 15.1 165.938 15.508C165.41 15.908 164.75 16.108 163.958 16.108C163.334 16.108 162.778 15.968 162.29 15.688C161.81 15.408 161.434 15.012 161.162 14.5C160.89 13.988 160.754 13.388 160.754 12.7ZM174.283 9.424V16H173.191V15.028C172.983 15.364 172.691 15.628 172.315 15.82C171.947 16.004 171.539 16.096 171.091 16.096C170.579 16.096 170.119 15.992 169.711 15.784C169.303 15.568 168.979 15.248 168.739 14.824C168.507 14.4 168.391 13.884 168.391 13.276V9.424H169.471V13.132C169.471 13.78 169.635 14.28 169.963 14.632C170.291 14.976 170.739 15.148 171.307 15.148C171.891 15.148 172.351 14.968 172.687 14.608C173.023 14.248 173.191 13.724 173.191 13.036V9.424H174.283ZM177.219 10.492C177.411 10.116 177.683 9.824 178.035 9.616C178.395 9.408 178.831 9.304 179.343 9.304V10.432H179.055C177.831 10.432 177.219 11.096 177.219 12.424V16H176.127V9.424H177.219V10.492ZM181.168 8.356C180.96 8.356 180.784 8.284 180.64 8.14C180.496 7.996 180.424 7.82 180.424 7.612C180.424 7.404 180.496 7.228 180.64 7.084C180.784 6.94 180.96 6.868 181.168 6.868C181.368 6.868 181.536 6.94 181.672 7.084C181.816 7.228 181.888 7.404 181.888 7.612C181.888 7.82 181.816 7.996 181.672 8.14C181.536 8.284 181.368 8.356 181.168 8.356ZM181.696 9.424V16H180.604V9.424H181.696ZM184.889 10.324V14.2C184.889 14.52 184.957 14.748 185.093 14.884C185.229 15.012 185.465 15.076 185.801 15.076H186.605V16H185.621C185.013 16 184.557 15.86 184.253 15.58C183.949 15.3 183.797 14.84 183.797 14.2V10.324H182.945V9.424H183.797V7.768H184.889V9.424H186.605V10.324H184.889ZM193.592 9.424L189.632 19.096H188.504L189.8 15.928L187.148 9.424H188.36L190.424 14.752L192.464 9.424H193.592Z" fill="white"/>
<defs>
<clipPath id="clip0_51_5508">
<rect width="24" height="24" fill="white"/>
</clipPath>
</defs>
</svg>
