<svg width="174" height="45" viewBox="0 0 174 45" fill="none" xmlns="http://www.w3.org/2000/svg">
<rect x="0.125" y="0.5" width="44" height="44" rx="16.5" fill="white"/>
<g clip-path="url(#clip0_51_5507)">
<path d="M12.8438 31.0938V26.625M18.8021 31.0938V22.1563M24.7604 31.0938V17.6875M30.7188 31.0938V13.2188" stroke="#2761FC" stroke-width="1.83333" stroke-linecap="round" stroke-linejoin="round"/>
</g>
<path d="M58.5142 24.7421H60.9956C61.0081 25.3687 61.2557 25.8857 61.7382 26.293C62.2269 26.7003 62.8849 26.9039 63.712 26.9039C64.4389 26.9039 65.0123 26.7598 65.4321 26.4716C65.8582 26.177 66.0713 25.776 66.0713 25.2684C66.0713 24.9426 65.9898 24.6637 65.8269 24.4319C65.664 24.2 65.4447 24.0183 65.1689 23.8867C64.8932 23.7551 64.5768 23.6423 64.2196 23.5483C63.8624 23.4481 63.4833 23.3541 63.0823 23.2664C62.6875 23.1724 62.2927 23.0721 61.8979 22.9656C61.5032 22.8528 61.1272 22.6993 60.77 22.505C60.4128 22.3108 60.0964 22.0758 59.8207 21.8C59.545 21.5243 59.3256 21.164 59.1627 20.7191C58.9998 20.2679 58.9183 19.7478 58.9183 19.1588C58.9183 18.0497 59.335 17.1254 60.1685 16.386C61.0019 15.6466 62.1361 15.2769 63.571 15.2769C64.2227 15.2769 64.8306 15.3646 65.3945 15.54C65.9585 15.7092 66.4598 15.963 66.8984 16.3014C67.3433 16.6335 67.6974 17.069 67.9606 17.6079C68.2238 18.1405 68.3647 18.7484 68.3835 19.4314H65.8269C65.8144 18.8612 65.6107 18.4069 65.2159 18.0685C64.8274 17.7301 64.2791 17.5609 63.571 17.5609C62.888 17.5609 62.3648 17.7082 62.0013 18.0027C61.6379 18.2972 61.4562 18.67 61.4562 19.1212C61.4562 19.422 61.5376 19.6789 61.7006 19.892C61.8698 20.0988 62.0922 20.2617 62.3679 20.3807C62.6499 20.4998 62.9726 20.6063 63.3361 20.7003C63.6995 20.788 64.0817 20.8789 64.4828 20.9729C64.8838 21.0606 65.2849 21.1609 65.6859 21.2737C66.087 21.3802 66.4692 21.5337 66.8326 21.7343C67.1961 21.9285 67.5157 22.1635 67.7914 22.4392C68.0734 22.7149 68.2958 23.0784 68.4587 23.5295C68.6279 23.9744 68.7125 24.4883 68.7125 25.071C68.7125 26.2992 68.2582 27.305 67.3496 28.0883C66.4473 28.8653 65.2065 29.2538 63.6274 29.2538C62.0922 29.2538 60.8546 28.8402 59.9147 28.0131C58.981 27.1796 58.5142 26.0893 58.5142 24.7421ZM70.1882 20.8789V18.8956H71.3256C71.5449 18.8956 71.7203 18.8267 71.8519 18.6888C71.9835 18.551 72.0493 18.363 72.0493 18.1249V16.0852H74.3992V18.8768H77.1908V20.8789H74.3992V25.5316C74.3992 25.9703 74.5151 26.3118 74.7469 26.5562C74.9788 26.8005 75.3266 26.9227 75.7903 26.9227H77.1344V29H75.2639C74.2049 29 73.3778 28.7086 72.7825 28.1259C72.1934 27.5431 71.8989 26.7128 71.8989 25.635V20.8789H70.1882ZM78.6853 23.9995C78.6853 22.953 78.9046 22.0194 79.3433 21.1985C79.7819 20.3776 80.3866 19.7447 81.1573 19.2998C81.9344 18.8486 82.8116 18.623 83.7892 18.623C84.5787 18.623 85.2931 18.764 85.9323 19.046C86.5777 19.3217 87.1072 19.7008 87.5208 20.1833C87.9343 20.6659 88.2508 21.2236 88.4701 21.8564C88.6957 22.4831 88.8085 23.1567 88.8085 23.8773V24.6669H81.1104C81.1479 25.4439 81.4143 26.0705 81.9093 26.5468C82.4106 27.0167 83.0623 27.2517 83.8644 27.2517C84.4659 27.2517 84.9923 27.1233 85.4435 26.8663C85.8947 26.6031 86.208 26.2616 86.3834 25.8418H88.7145C88.4638 26.8883 87.903 27.7185 87.032 28.3326C86.161 28.9467 85.08 29.2538 83.7892 29.2538C82.3041 29.2538 81.0822 28.7587 80.1234 27.7687C79.1647 26.7723 78.6853 25.516 78.6853 23.9995ZM81.1479 22.8998H86.421C86.3646 22.2168 86.0952 21.6685 85.6127 21.2549C85.1302 20.835 84.5223 20.6251 83.7892 20.6251C83.0936 20.6251 82.4983 20.8444 82.0033 21.2831C81.5083 21.7155 81.2231 22.2544 81.1479 22.8998ZM90.7166 26.152V14.5625H93.2168V25.917C93.2168 26.2052 93.2857 26.4277 93.4236 26.5844C93.5677 26.7347 93.7682 26.8099 94.0251 26.8099H94.4293V29H93.48C92.6027 29 91.9228 28.7493 91.4403 28.248C90.9578 27.7467 90.7166 27.0481 90.7166 26.152ZM96.4126 26.152V14.5625H98.9128V25.917C98.9128 26.2052 98.9818 26.4277 99.1196 26.5844C99.2638 26.7347 99.4643 26.8099 99.7212 26.8099H100.125V29H99.176C98.2987 29 97.6189 28.7493 97.1364 28.248C96.6538 27.7467 96.4126 27.0481 96.4126 26.152ZM101.507 23.9995C101.507 22.4141 101.943 21.1233 102.814 20.127C103.691 19.1243 104.822 18.623 106.207 18.623C106.614 18.623 106.999 18.6794 107.363 18.7922C107.726 18.8988 108.03 19.0398 108.275 19.2152C108.525 19.3907 108.729 19.5567 108.886 19.7134C109.042 19.87 109.174 20.0267 109.28 20.1833H109.421V18.8768H111.922V29H109.459V27.7123H109.318C109.218 27.8627 109.099 28.0068 108.961 28.1447C108.829 28.2825 108.641 28.4454 108.397 28.6334C108.152 28.8214 107.845 28.9718 107.476 29.0846C107.112 29.1974 106.714 29.2538 106.282 29.2538C104.866 29.2538 103.716 28.7713 102.832 27.8063C101.949 26.835 101.507 25.5661 101.507 23.9995ZM104.045 23.9525C104.045 24.8674 104.296 25.6037 104.797 26.1614C105.298 26.7191 105.953 26.9979 106.761 26.9979C107.576 26.9979 108.231 26.7097 108.726 26.1332C109.227 25.5504 109.478 24.8235 109.478 23.9525C109.478 23.0126 109.224 22.27 108.716 21.7249C108.209 21.1734 107.551 20.8977 106.743 20.8977C105.947 20.8977 105.298 21.1828 104.797 21.7531C104.296 22.3233 104.045 23.0564 104.045 23.9525ZM114.478 29V18.8768H116.838V20.5311H116.997C117.185 20.08 117.511 19.6852 117.975 19.3468C118.439 19.0084 118.996 18.8392 119.648 18.8392H120.578V21.2267H119.535C118.739 21.2267 118.113 21.4961 117.655 22.035C117.204 22.5677 116.979 23.2914 116.979 24.2063V29H114.478ZM127.919 29V15.5212H132.459C133.518 15.5212 134.48 15.6873 135.345 16.0194C136.21 16.3453 136.93 16.8058 137.507 17.4011C138.09 17.9902 138.538 18.6982 138.851 19.5254C139.171 20.3463 139.33 21.2455 139.33 22.223C139.33 24.316 138.719 25.9703 137.497 27.1859C136.282 28.3953 134.602 29 132.459 29H127.919ZM130.476 26.7629H132.365C132.973 26.7629 133.531 26.6721 134.038 26.4904C134.552 26.3086 135.007 26.0392 135.401 25.682C135.802 25.3248 136.116 24.8517 136.341 24.2627C136.567 23.6674 136.68 22.9875 136.68 22.223C136.68 21.2455 136.482 20.4152 136.088 19.7322C135.699 19.0492 135.185 18.551 134.546 18.2377C133.907 17.9181 133.18 17.7583 132.365 17.7583H130.476V26.7629ZM140.947 23.9995C140.947 22.4141 141.383 21.1233 142.254 20.127C143.131 19.1243 144.262 18.623 145.647 18.623C146.054 18.623 146.439 18.6794 146.803 18.7922C147.166 18.8988 147.47 19.0398 147.715 19.2152C147.965 19.3907 148.169 19.5567 148.326 19.7134C148.482 19.87 148.614 20.0267 148.72 20.1833H148.861V18.8768H151.362V29H148.899V27.7123H148.758C148.658 27.8627 148.539 28.0068 148.401 28.1447C148.269 28.2825 148.081 28.4454 147.837 28.6334C147.592 28.8214 147.285 28.9718 146.916 29.0846C146.552 29.1974 146.154 29.2538 145.722 29.2538C144.306 29.2538 143.156 28.7713 142.272 27.8063C141.389 26.835 140.947 25.5661 140.947 23.9995ZM143.485 23.9525C143.485 24.8674 143.736 25.6037 144.237 26.1614C144.738 26.7191 145.393 26.9979 146.201 26.9979C147.016 26.9979 147.671 26.7097 148.166 26.1332C148.667 25.5504 148.918 24.8235 148.918 23.9525C148.918 23.0126 148.664 22.27 148.156 21.7249C147.649 21.1734 146.991 20.8977 146.182 20.8977C145.387 20.8977 144.738 21.1828 144.237 21.7531C143.736 22.3233 143.485 23.0564 143.485 23.9525ZM153.223 20.8789V18.8956H154.36C154.579 18.8956 154.755 18.8267 154.886 18.6888C155.018 18.551 155.084 18.363 155.084 18.1249V16.0852H157.434V18.8768H160.225V20.8789H157.434V25.5316C157.434 25.9703 157.55 26.3118 157.781 26.5562C158.013 26.8005 158.361 26.9227 158.825 26.9227H160.169V29H158.298C157.239 29 156.412 28.7086 155.817 28.1259C155.228 27.5431 154.933 26.7128 154.933 25.635V20.8789H153.223ZM161.72 23.9995C161.72 22.4141 162.155 21.1233 163.026 20.127C163.904 19.1243 165.035 18.623 166.419 18.623C166.827 18.623 167.212 18.6794 167.576 18.7922C167.939 18.8988 168.243 19.0398 168.487 19.2152C168.738 19.3907 168.942 19.5567 169.098 19.7134C169.255 19.87 169.387 20.0267 169.493 20.1833H169.634V18.8768H172.134V29H169.672V27.7123H169.531C169.43 27.8627 169.311 28.0068 169.173 28.1447C169.042 28.2825 168.854 28.4454 168.609 28.6334C168.365 28.8214 168.058 28.9718 167.688 29.0846C167.325 29.1974 166.927 29.2538 166.495 29.2538C165.078 29.2538 163.929 28.7713 163.045 27.8063C162.161 26.835 161.72 25.5661 161.72 23.9995ZM164.258 23.9525C164.258 24.8674 164.508 25.6037 165.01 26.1614C165.511 26.7191 166.166 26.9979 166.974 26.9979C167.789 26.9979 168.443 26.7097 168.938 26.1332C169.44 25.5504 169.69 24.8235 169.69 23.9525C169.69 23.0126 169.437 22.27 168.929 21.7249C168.422 21.1734 167.764 20.8977 166.955 20.8977C166.159 20.8977 165.511 21.1828 165.01 21.7531C164.508 22.3233 164.258 23.0564 164.258 23.9525Z" fill="white"/>
<defs>
<clipPath id="clip0_51_5507">
<rect width="22" height="22" fill="white" transform="translate(11.125 11.5)"/>
</clipPath>
</defs>
</svg>
